<?xml version="1.0" standalone="no"?>
<!DOCTYPE svg PUBLIC "-//W3C//DTD SVG 20010904//EN"
 "http://www.w3.org/TR/2001/REC-SVG-20010904/DTD/svg10.dtd">
<svg version="1.0" xmlns="http://www.w3.org/2000/svg"
 width="260.000000pt" height="260.000000pt" viewBox="0 0 260.000000 260.000000"
 preserveAspectRatio="xMidYMid meet">
<metadata>
Created by potrace 1.11, written by Peter Selinger 2001-2013
</metadata>
<g transform="translate(0.000000,260.000000) scale(0.100000,-0.100000)"
fill="#000000" stroke="none">
<path d="M648 2178 c-24 -30 -22 -73 4 -111 12 -18 25 -34 28 -37 3 -3 11 -17
17 -31 11 -25 9 -28 -28 -44 -108 -49 -177 -170 -179 -312 0 -26 -6 -36 -30
-48 -16 -8 -32 -26 -36 -39 -6 -27 18 -91 47 -122 17 -18 20 -36 21 -128 l1
-108 -30 -24 c-17 -13 -36 -37 -43 -54 -14 -34 -3 -58 46 -104 26 -23 27 -28
25 -130 -1 -94 -3 -109 -22 -129 -25 -25 -49 -78 -49 -105 0 -20 34 -55 62
-65 9 -3 28 -28 42 -55 39 -76 113 -138 199 -166 30 -9 1140 -7 1173 2 85 26
150 79 191 158 15 30 35 57 44 59 9 3 28 16 42 29 33 30 28 63 -17 126 -33 46
-33 48 -32 151 l1 104 38 38 c48 50 48 78 -1 127 l-38 38 -1 104 c-1 95 1 106
24 136 60 79 61 124 5 157 -23 14 -28 24 -30 67 -2 58 -17 120 -39 163 -21 39
-92 110 -120 119 -13 4 -23 12 -23 17 0 5 -6 8 -12 6 -22 -4 -10 43 24 89 54
76 34 144 -43 144 -34 0 -43 -6 -78 -50 -33 -41 -59 -95 -77 -157 -4 -16 -894
-19 -894 -3 0 30 -46 125 -81 164 -35 39 -46 46 -77 46 -26 0 -42 -7 -54 -22z
m224 -380 c44 -31 64 -80 60 -145 -3 -29 -75 -103 -104 -105 -13 0 -30 -2 -38
-3 -23 -2 -73 17 -91 34 -25 24 -49 77 -49 106 0 57 46 117 105 137 30 10 86
-1 117 -24z m989 22 c64 -18 110 -91 101 -160 -5 -41 -62 -100 -105 -110 -116
-26 -211 90 -161 195 9 20 28 42 41 48 12 5 23 14 23 18 0 7 20 13 55 18 6 0
26 -4 46 -9z"/>
</g>
</svg>
